<svg xmlns="http://www.w3.org/2000/svg" viewBox="0 0 1354.96 500.82"><defs><style>.cls-1{isolation:isolate;}.cls-2{fill:#00c2d1;stroke-width:0.82px;}.cls-16,.cls-2,.cls-22{stroke:#000;}.cls-16,.cls-18,.cls-2,.cls-20,.cls-21,.cls-22,.cls-23,.cls-5,.cls-7{stroke-miterlimit:10;}.cls-3{opacity:0.4;}.cls-4{fill:#fff;}.cls-16,.cls-18,.cls-19,.cls-20,.cls-21,.cls-22,.cls-23,.cls-24,.cls-5,.cls-7{fill:none;}.cls-19,.cls-20,.cls-21,.cls-24,.cls-5,.cls-7{stroke:#fff;}.cls-5{stroke-width:1.1px;}.cls-6{opacity:0.15;}.cls-7{stroke-width:1.25px;}.cls-8{opacity:0.1;mix-blend-mode:multiply;}.cls-9{fill:#5eaef7;}.cls-10{fill:#268fef;}.cls-11{fill:#075edb;}.cls-12{fill:#e6e6e6;}.cls-13{fill:#8e6ee5;}.cls-14{fill:#7647dd;}.cls-15{fill:#efcb12;}.cls-16,.cls-18,.cls-19,.cls-22,.cls-23,.cls-24{stroke-linecap:round;}.cls-17{fill:#ac94f7;}.cls-18,.cls-23{stroke:#4650e0;}.cls-19,.cls-24{stroke-linejoin:round;}.cls-19{stroke-width:9.68px;}.cls-20{stroke-width:1.36px;}.cls-21{stroke-width:1.51px;}.cls-22,.cls-23{stroke-width:1.07px;}.cls-24{stroke-width:10.37px;}</style></defs><title>home</title><g class="cls-1"><g id="Artboard_1" data-name="Artboard 1"><rect class="cls-2" x="0.41" y="0.41" width="500" height="500"/><g class="cls-3"><path class="cls-4" d="M42.09,83.8a5,5,0,1,1-5-5A5,5,0,0,1,42.09,83.8Z" transform="translate(0.41 0.41)"/><path class="cls-4" d="M27.46,298.8a5,5,0,1,1-5-5A5,5,0,0,1,27.46,298.8Z" transform="translate(0.41 0.41)"/><path class="cls-4" d="M138,197.15a5,5,0,1,1-5-5A5,5,0,0,1,138,197.15Z" transform="translate(0.41 0.41)"/><path class="cls-4" d="M354.49,291.49a5,5,0,1,1-5-5A5,5,0,0,1,354.49,291.49Z" transform="translate(0.41 0.41)"/><path class="cls-4" d="M483.65,174.2a5,5,0,1,1-5-5A5,5,0,0,1,483.65,174.2Z" transform="translate(0.41 0.41)"/><path class="cls-4" d="M362,63.29a5,5,0,1,1-5-5A5,5,0,0,1,362,63.29Z" transform="translate(0.41 0.41)"/><path class="cls-4" d="M453.94,388.75a5,5,0,1,1-5-5A5,5,0,0,1,453.94,388.75Z" transform="translate(0.41 0.41)"/><path class="cls-4" d="M163.83,396.3a5,5,0,1,1-5-5A5,5,0,0,1,163.83,396.3Z" transform="translate(0.41 0.41)"/><line class="cls-5" x1="37.5" y1="84.21" x2="133.44" y2="197.56"/><line class="cls-5" x1="133.44" y1="197.56" x2="22.87" y2="299.21"/><line class="cls-5" x1="22.87" y1="299.21" x2="159.24" y2="396.71"/><line class="cls-5" x1="159.24" y1="396.71" x2="349.9" y2="291.89"/><line class="cls-5" x1="349.9" y1="291.89" x2="449.35" y2="389.16"/><line class="cls-5" x1="449.35" y1="389.16" x2="479.06" y2="174.6"/><line class="cls-5" x1="449.35" y1="389.16" x2="357.42" y2="63.7"/><line class="cls-5" x1="357.42" y1="63.7" x2="479.06" y2="174.6"/><line class="cls-5" x1="357.42" y1="63.7" x2="349.9" y2="291.89"/><line class="cls-5" x1="357.42" y1="63.7" x2="133.44" y2="197.56"/><line class="cls-5" x1="37.5" y1="84.21" x2="22.87" y2="299.21"/><line class="cls-5" x1="37.5" y1="84.21" x2="479.06" y2="174.6"/><line class="cls-5" x1="159.24" y1="396.71" x2="37.5" y2="84.21"/><line class="cls-5" x1="159.24" y1="396.71" x2="357.42" y2="63.7"/><line class="cls-5" x1="349.9" y1="291.89" x2="133.44" y2="197.56"/><line class="cls-5" x1="133.44" y1="197.56" x2="479.06" y2="174.6"/><line class="cls-5" x1="22.87" y1="299.21" x2="349.9" y2="291.89"/></g><g class="cls-6"><circle class="cls-4" cx="451.98" cy="82.78" r="5"/><path class="cls-4" d="M464.85,317.6a5,5,0,1,0,5-5A5,5,0,0,0,464.85,317.6Z" transform="translate(0.41 0.41)"/><path class="cls-4" d="M355.12,196.48a5,5,0,1,0,5-5A5,5,0,0,0,355.12,196.48Z" transform="translate(0.41 0.41)"/><path class="cls-4" d="M104.77,304.12a8.35,8.35,0,1,0,8.34-8.34A8.35,8.35,0,0,0,104.77,304.12Z" transform="translate(0.41 0.41)"/><path class="cls-4" d="M16.43,200a5,5,0,1,0,5-5A5,5,0,0,0,16.43,200Z" transform="translate(0.41 0.41)"/><path class="cls-4" d="M96.27,41.3a5,5,0,1,0,5-5A5,5,0,0,0,96.27,41.3Z" transform="translate(0.41 0.41)"/><path class="cls-4" d="M47.53,394a5,5,0,1,0,5-5A5,5,0,0,0,47.53,394Z" transform="translate(0.41 0.41)"/><path class="cls-4" d="M315.9,406.76a5,5,0,1,0,5-5A5,5,0,0,0,315.9,406.76Z" transform="translate(0.41 0.41)"/><line class="cls-7" x1="451.98" y1="82.78" x2="360.53" y2="196.89"/><line class="cls-7" x1="360.53" y1="196.89" x2="470.26" y2="318.01"/><line class="cls-7" x1="470.26" y1="318.01" x2="321.31" y2="407.17"/><line class="cls-7" x1="321.31" y1="407.17" x2="113.52" y2="304.53"/><line class="cls-7" x1="113.52" y1="304.53" x2="52.94" y2="394.45"/><line class="cls-7" x1="52.94" y1="394.45" x2="21.84" y2="200.44"/><line class="cls-7" x1="52.94" y1="394.45" x2="101.68" y2="41.71"/><line class="cls-7" x1="101.68" y1="41.71" x2="21.84" y2="200.44"/><line class="cls-7" x1="101.68" y1="41.71" x2="113.52" y2="304.53"/><line class="cls-7" x1="101.68" y1="41.71" x2="360.53" y2="196.89"/><line class="cls-7" x1="451.98" y1="82.78" x2="470.26" y2="318.01"/><line class="cls-7" x1="451.98" y1="82.78" x2="21.84" y2="200.44"/><line class="cls-7" x1="321.31" y1="407.17" x2="451.98" y2="82.78"/><line class="cls-7" x1="321.31" y1="407.17" x2="101.68" y2="41.71"/><line class="cls-7" x1="113.52" y1="304.53" x2="360.53" y2="196.89"/><line class="cls-7" x1="360.53" y1="196.89" x2="21.84" y2="200.44"/><line class="cls-7" x1="470.26" y1="318.01" x2="113.52" y2="304.53"/></g><g class="cls-8"><path d="M272.37,92a11.76,11.76,0,0,0-17.45-10.3v-.09a23.51,23.51,0,0,0-46-6.8,17.29,17.29,0,0,0-23.91,16V97a11.6,11.6,0,0,0,11.59,11.6h64.19A11.61,11.61,0,0,0,272.37,97Z" transform="translate(0.41 0.41)"/></g><path class="cls-4" d="M268.93,89.14a11.76,11.76,0,0,0-17.45-10.3v-.09a23.51,23.51,0,0,0-46-6.8,17.29,17.29,0,0,0-23.91,16v6.17a11.59,11.59,0,0,0,11.6,11.59h64.18a11.59,11.59,0,0,0,11.6-11.59Z" transform="translate(0.41 0.41)"/><g class="cls-8"><path d="M223.27,82.83a6.82,6.82,0,0,0-10.12-6v0a13.65,13.65,0,0,0-26.71-4,10,10,0,0,0-13.87,9.26v3.58a6.73,6.73,0,0,0,6.73,6.73h37.24a6.73,6.73,0,0,0,6.73-6.73Z" transform="translate(0.41 0.41)"/></g><path class="cls-4" d="M219.84,79.39a6.83,6.83,0,0,0-10.13-6v0a13.65,13.65,0,0,0-26.71-4,10,10,0,0,0-13.87,9.26v3.58A6.73,6.73,0,0,0,175.86,89h37.25a6.73,6.73,0,0,0,6.73-6.73Z" transform="translate(0.41 0.41)"/><g class="cls-8"><path d="M134,121.18H104.47a3.47,3.47,0,0,0-3.47,3.47v48.93a3.47,3.47,0,0,0,3.47,3.47h36.95a3.47,3.47,0,0,0,3.47-3.47V132.05Z" transform="translate(0.41 0.41)"/><path d="M134,128.57a3.47,3.47,0,0,0,3.47,3.48h7.4L134,121.18Z" transform="translate(0.41 0.41)"/><rect x="124.52" y="151.26" width="13.61" height="14.99"/><rect x="110.11" y="133.63" width="17.22" height="3.23"/><rect x="110.11" y="139.51" width="28.01" height="3.23"/><rect x="110.11" y="145.38" width="28.01" height="3.23"/><rect x="110.11" y="151.26" width="11.64" height="3.23"/><rect x="110.11" y="157.14" width="11.64" height="3.23"/><rect x="110.11" y="163.02" width="11.64" height="3.23"/></g><path class="cls-9" d="M129,116.18H99.47A3.47,3.47,0,0,0,96,119.65v48.93a3.47,3.47,0,0,0,3.47,3.47h36.95a3.47,3.47,0,0,0,3.47-3.47V127.05Z" transform="translate(0.41 0.41)"/><path class="cls-10" d="M129,123.57a3.47,3.47,0,0,0,3.47,3.48h7.4L129,116.18Z" transform="translate(0.41 0.41)"/><rect class="cls-11" x="119.52" y="146.26" width="13.61" height="14.99"/><rect class="cls-11" x="105.11" y="128.63" width="17.22" height="3.23"/><rect class="cls-11" x="105.11" y="134.51" width="28.01" height="3.23"/><rect class="cls-11" x="105.11" y="140.38" width="28.01" height="3.23"/><rect class="cls-11" x="105.11" y="146.26" width="11.64" height="3.23"/><rect class="cls-11" x="105.11" y="152.14" width="11.64" height="3.23"/><rect class="cls-11" x="105.11" y="158.02" width="11.64" height="3.23"/><g class="cls-8"><path d="M102.2,90.53H72.65A3.48,3.48,0,0,0,69.18,94v48.93a3.48,3.48,0,0,0,3.47,3.48H109.6a3.47,3.47,0,0,0,3.47-3.48V101.4Z" transform="translate(0.41 0.41)"/><path d="M102.2,97.93a3.47,3.47,0,0,0,3.48,3.47h7.39L102.2,90.53Z" transform="translate(0.41 0.41)"/><path d="M88.77,103.16c-4.37-1.3-5.66-.92-5.66-.92v13.42a6.89,6.89,0,0,0-2.44-.42c-2.56,0-4.63,1.25-4.63,2.8s2.07,2.81,4.63,2.81,4.63-1.26,4.63-2.81a1.81,1.81,0,0,0-.26-.92v-9.64a7.19,7.19,0,0,1,4.89,1.41,4.61,4.61,0,0,0,5.91,0C92.11,108.75,92.32,104.21,88.77,103.16Z" transform="translate(0.41 0.41)"/><path d="M102.58,119.75,89.47,113v13.42A6.93,6.93,0,0,0,87,126c-2.56,0-4.63,1.26-4.63,2.81s2.07,2.81,4.63,2.81,4.63-1.26,4.63-2.81a1.91,1.91,0,0,0-.26-.92v-7.16l9.26,4.76v6.88a7,7,0,0,0-2.45-.43c-2.55,0-4.63,1.26-4.63,2.81s2.08,2.81,4.63,2.81,4.63-1.26,4.63-2.81a1.81,1.81,0,0,0-.26-.92Z" transform="translate(0.41 0.41)"/></g><path class="cls-4" d="M98,86.31H68.43A3.48,3.48,0,0,0,65,89.78v48.93a3.48,3.48,0,0,0,3.47,3.48h36.95a3.47,3.47,0,0,0,3.47-3.48V97.18Z" transform="translate(0.41 0.41)"/><path class="cls-12" d="M98,93.71a3.47,3.47,0,0,0,3.48,3.47h7.39L98,86.31Z" transform="translate(0.41 0.41)"/><path class="cls-13" d="M84.55,98.94c-4.37-1.3-5.66-.92-5.66-.92v13.42a6.89,6.89,0,0,0-2.44-.42c-2.56,0-4.63,1.25-4.63,2.8s2.07,2.81,4.63,2.81,4.63-1.26,4.63-2.81a1.81,1.81,0,0,0-.26-.92v-9.64a7.19,7.19,0,0,1,4.89,1.41,4.61,4.61,0,0,0,5.91,0C87.89,104.53,88.1,100,84.55,98.94Z" transform="translate(0.41 0.41)"/><path class="cls-14" d="M98.36,115.53,85.25,108.8v13.42a6.93,6.93,0,0,0-2.44-.43c-2.56,0-4.63,1.26-4.63,2.81s2.07,2.81,4.63,2.81,4.63-1.26,4.63-2.81a1.91,1.91,0,0,0-.26-.92v-7.16l9.26,4.76v6.88a7,7,0,0,0-2.45-.43c-2.55,0-4.63,1.26-4.63,2.81s2.08,2.81,4.63,2.81,4.63-1.26,4.63-2.81a1.81,1.81,0,0,0-.26-.92Z" transform="translate(0.41 0.41)"/><g class="cls-8"><path d="M312.74,168.76a31.31,31.31,0,0,1,1-8c-19.34-3.3-45.11-6.19-59.32-6.19-13.77,0-38.38,2.71-57.49,5.88a31.38,31.38,0,0,1-28.68,39.69c2.05,27.71,9.19,65.4,17.61,85.74,13.94,33.7,62.17,63.33,68.56,68.56,6.39-5.23,54.62-34.86,68.56-68.56,8.43-20.38,15.58-58.17,17.61-85.9A31.37,31.37,0,0,1,312.74,168.76Z" transform="translate(0.41 0.41)"/><path d="M254.46,170.22c-9.26,0-25.09,1.41-40.94,3.56a47,47,0,0,1-28.31,38.29c1.47,12.49,3.72,25.6,6.34,37.45,2.69,12.11,5.77,22.9,8.84,30.32,9.29,22.44,39.19,44.72,54.07,55.27l0,0V170.22Z" transform="translate(0.41 0.41)"/><path d="M297.34,174.05c-16.37-2.28-33.21-3.83-42.83-3.83V335.08c14.89-10.57,44.74-32.83,54-55.24,3.08-7.43,6.16-18.21,8.84-30.32a384.34,384.34,0,0,0,6.44-38.28A47,47,0,0,1,297.34,174.05Z" transform="translate(0.41 0.41)"/></g><path class="cls-11" d="M308.27,164.3a31.45,31.45,0,0,1,1.05-8.05C290,153,264.21,150.06,250,150.06c-13.77,0-38.38,2.72-57.5,5.88a31.35,31.35,0,0,1-28.67,39.69c2,27.72,9.19,65.41,17.61,85.74,13.94,33.7,62.16,63.34,68.56,68.57,6.38-5.23,54.61-34.87,68.55-68.57,8.44-20.37,15.59-58.16,17.62-85.89A31.38,31.38,0,0,1,308.27,164.3Z" transform="translate(0.41 0.41)"/><path class="cls-9" d="M250,165.75c-9.26,0-25.1,1.42-40.94,3.57a47,47,0,0,1-28.31,38.29c1.47,12.48,3.71,25.6,6.34,37.45,2.69,12.11,5.77,22.9,8.84,30.32,9.29,22.44,39.18,44.72,54.07,55.27l0,0V165.75Z" transform="translate(0.41 0.41)"/><path class="cls-10" d="M292.88,169.59c-16.38-2.29-33.21-3.83-42.84-3.84V330.61c14.9-10.56,44.74-32.82,54-55.23,3.07-7.43,6.16-18.21,8.84-30.32a384.83,384.83,0,0,0,6.44-38.28A47,47,0,0,1,292.88,169.59Z" transform="translate(0.41 0.41)"/><g class="cls-8"><rect x="62.48" y="248.45" width="68.29" height="91.42" rx="4.03"/><rect x="69.43" y="256.78" width="54.4" height="72.06" rx="4.03"/><path d="M97.88,252.66A1.67,1.67,0,1,1,96.22,251,1.66,1.66,0,0,1,97.88,252.66Z" transform="translate(0.41 0.41)"/><path d="M99.91,334a3.7,3.7,0,1,1-3.69-3.69A3.69,3.69,0,0,1,99.91,334Z" transform="translate(0.41 0.41)"/><path d="M108.84,291.62H83.7a3.57,3.57,0,0,0-3.56,3.56v21.11a3.57,3.57,0,0,0,3.56,3.56h25.14a3.57,3.57,0,0,0,3.56-3.56V295.18A3.57,3.57,0,0,0,108.84,291.62Z" transform="translate(0.41 0.41)"/><path d="M107.13,291.62H104v-10.5a6.28,6.28,0,0,0-6.27-6.27h-3a6.28,6.28,0,0,0-6.26,6.27v10.5H85.3v-10.5a9.41,9.41,0,0,1,9.4-9.4h3c5.19,0,9.4,4.22,9.4,10.48Z" transform="translate(0.41 0.41)"/><path d="M102.22,311.37l-3.85-6.68a4.52,4.52,0,1,0-4.2,0l-3.86,6.68c-.43.74-.08,1.35.78,1.35h10.35C102.3,312.72,102.65,312.11,102.22,311.37Z" transform="translate(0.41 0.41)"/></g><rect class="cls-10" x="57.48" y="243.45" width="68.29" height="91.42" rx="4.03"/><rect class="cls-11" x="64.43" y="251.78" width="54.4" height="72.06" rx="4.03"/><path class="cls-9" d="M92.88,247.66A1.67,1.67,0,1,1,91.22,246,1.66,1.66,0,0,1,92.88,247.66Z" transform="translate(0.41 0.41)"/><path class="cls-9" d="M94.91,329a3.7,3.7,0,1,1-3.69-3.69A3.69,3.69,0,0,1,94.91,329Z" transform="translate(0.41 0.41)"/><path class="cls-15" d="M103.84,286.62H78.7a3.57,3.57,0,0,0-3.56,3.56v21.11a3.57,3.57,0,0,0,3.56,3.56h25.14a3.57,3.57,0,0,0,3.56-3.56V290.18A3.57,3.57,0,0,0,103.84,286.62Z" transform="translate(0.41 0.41)"/><path class="cls-15" d="M102.13,286.62H99v-10.5a6.28,6.28,0,0,0-6.27-6.27h-3a6.28,6.28,0,0,0-6.26,6.27v10.5H80.3v-10.5a9.41,9.41,0,0,1,9.4-9.4h3c5.19,0,9.4,4.22,9.4,10.48Z" transform="translate(0.41 0.41)"/><path class="cls-11" d="M97.22,306.37l-3.85-6.68a4.52,4.52,0,1,0-4.2,0l-3.86,6.68c-.43.74-.08,1.35.78,1.35H96.44C97.3,307.72,97.65,307.11,97.22,306.37Z" transform="translate(0.41 0.41)"/><g class="cls-8"><path d="M436.33,152V110.3a4.44,4.44,0,0,0-2.27-3.86l-25.12,25.12,24.56,24.55A4.45,4.45,0,0,0,436.33,152Z" transform="translate(0.41 0.41)"/><path d="M359,106.44a4.45,4.45,0,0,0-2.26,3.86V152a4.44,4.44,0,0,0,2.83,4.14l24.55-24.55Z" transform="translate(0.41 0.41)"/><path d="M431.87,156.43a4.42,4.42,0,0,0,1.63-.32l-24.56-24.55-9.28,9.28a4.45,4.45,0,0,1-6.3,0l-9.29-9.28-24.55,24.55a4.38,4.38,0,0,0,1.63.32Z" transform="translate(0.41 0.41)"/><path d="M399.66,140.84l34.4-34.4a4.41,4.41,0,0,0-2.19-.6H361.15a4.45,4.45,0,0,0-2.2.6l34.41,34.4A4.45,4.45,0,0,0,399.66,140.84Z" transform="translate(0.41 0.41)"/><path d="M402.24,133.12a12.94,12.94,0,0,1-6.29,1.41c-5.79,0-10.69-4.23-10.69-11,0-7.27,5-13.56,12.88-13.56,6.14,0,10.27,4.31,10.27,10.2,0,5.3-3,8.41-6.28,8.41-1.41,0-2.72-1-2.61-3.11h-.14a5.56,5.56,0,0,1-5,3.11c-2,0-3.81-1.66-3.81-4.45a8.34,8.34,0,0,1,8.36-8.37,9.39,9.39,0,0,1,3.78.74l-1.2,6.39c-.53,2.69-.11,3.92,1.06,4,1.8,0,3.81-2.37,3.81-6.46,0-5.12-3.07-8.79-8.54-8.79-5.75,0-10.59,4.55-10.59,11.72,0,5.89,3.85,9.53,9.07,9.53a11,11,0,0,0,5.33-1.24Zm-1.95-15.25a5.89,5.89,0,0,0-1.76-.25c-3.11,0-5.61,2.93-5.61,6.36,0,1.55.77,2.68,2.33,2.68,2,0,3.91-2.61,4.3-4.8Z" transform="translate(0.41 0.41)"/></g><path class="cls-10" d="M431.33,147V105.3a4.44,4.44,0,0,0-2.27-3.86l-25.12,25.12,24.56,24.55A4.45,4.45,0,0,0,431.33,147Z" transform="translate(0.41 0.41)"/><path class="cls-10" d="M354,101.44a4.45,4.45,0,0,0-2.26,3.86V147a4.44,4.44,0,0,0,2.83,4.14l24.55-24.55Z" transform="translate(0.41 0.41)"/><path class="cls-11" d="M426.87,151.43a4.42,4.42,0,0,0,1.63-.32l-24.56-24.55-9.28,9.28a4.45,4.45,0,0,1-6.3,0l-9.29-9.28-24.55,24.55a4.38,4.38,0,0,0,1.63.32Z" transform="translate(0.41 0.41)"/><path class="cls-9" d="M394.66,135.84l34.4-34.4a4.41,4.41,0,0,0-2.19-.6H356.15a4.45,4.45,0,0,0-2.2.6l34.41,34.4A4.45,4.45,0,0,0,394.66,135.84Z" transform="translate(0.41 0.41)"/><path class="cls-4" d="M397.24,128.12a12.94,12.94,0,0,1-6.29,1.41c-5.79,0-10.69-4.23-10.69-11,0-7.27,5-13.56,12.88-13.56,6.14,0,10.27,4.31,10.27,10.2,0,5.3-3,8.41-6.28,8.41-1.41,0-2.72-1-2.61-3.11h-.14a5.56,5.56,0,0,1-5,3.11c-2,0-3.81-1.66-3.81-4.45a8.34,8.34,0,0,1,8.36-8.37,9.39,9.39,0,0,1,3.78.74l-1.2,6.39c-.53,2.69-.11,3.92,1.06,4,1.8,0,3.81-2.37,3.81-6.46,0-5.12-3.07-8.79-8.54-8.79-5.75,0-10.59,4.55-10.59,11.72,0,5.89,3.85,9.53,9.07,9.53a11,11,0,0,0,5.33-1.24Zm-1.95-15.25a5.89,5.89,0,0,0-1.76-.25c-3.11,0-5.61,2.93-5.61,6.36,0,1.55.77,2.68,2.33,2.68,2,0,3.91-2.61,4.3-4.8Z" transform="translate(0.41 0.41)"/><g class="cls-8"><rect x="113.09" y="311.1" width="39.55" height="62.5" rx="4.01"/><path d="M137.24,368.58a2.21,2.21,0,0,1-2.2,2.21h-5.18a2.21,2.21,0,0,1-2.2-2.21h0a2.21,2.21,0,0,1,2.2-2.2H135a2.21,2.21,0,0,1,2.2,2.2Z" transform="translate(0.41 0.41)"/><path d="M137.24,314.3a1.2,1.2,0,0,1-1.2,1.2h-7.18a1.2,1.2,0,0,1-1.2-1.2h0a1.21,1.21,0,0,1,1.2-1.21H136a1.21,1.21,0,0,1,1.2,1.21Z" transform="translate(0.41 0.41)"/><path d="M122,317.91h21.64a4,4,0,0,1,4,4v38.51a4,4,0,0,1-4,4H122a4,4,0,0,1-4-4V321.91A4,4,0,0,1,122,317.91Z"/><path d="M142.23,348.58a9.72,9.72,0,0,1-9.72,9.72h0a9.72,9.72,0,0,1-9.71-9.72v-5.4a9.72,9.72,0,0,1,9.71-9.72h0a9.72,9.72,0,0,1,9.72,9.72Z" transform="translate(0.41 0.41)"/><path class="cls-16" d="M134.18,352.39c-1.47,1.45-4.16-.34-5-4.09a10,10,0,0,1,2.16-8.14c.94-.92,3.18-.38,4,2.53.61,2.1-.42,5.92-1.15,6.68-1.22,1.25-2.75-1-3-2.76a5.91,5.91,0,0,1,1-3.76c.38-.38,1.7.94,1.24,3" transform="translate(0.41 0.41)"/><path class="cls-16" d="M130,337.84a9.22,9.22,0,0,0-3.12,6.07" transform="translate(0.41 0.41)"/><path class="cls-16" d="M135.91,350.47c2.59-2.93,2.75-9.35-.6-12.63" transform="translate(0.41 0.41)"/><path class="cls-16" d="M127.11,347.65c0,1.06.68,4.36,2,5.91" transform="translate(0.41 0.41)"/></g><rect class="cls-13" x="108.09" y="306.1" width="39.55" height="62.5" rx="4.01"/><path class="cls-17" d="M132.24,363.58a2.21,2.21,0,0,1-2.2,2.21h-5.18a2.21,2.21,0,0,1-2.2-2.21h0a2.21,2.21,0,0,1,2.2-2.2H130a2.21,2.21,0,0,1,2.2,2.2Z" transform="translate(0.41 0.41)"/><path class="cls-17" d="M132.24,309.3a1.2,1.2,0,0,1-1.2,1.2h-7.18a1.2,1.2,0,0,1-1.2-1.2h0a1.21,1.21,0,0,1,1.2-1.21H131a1.21,1.21,0,0,1,1.2,1.21Z" transform="translate(0.41 0.41)"/><path class="cls-14" d="M117,312.91h21.64a4,4,0,0,1,4,4v38.51a4,4,0,0,1-4,4H117a4,4,0,0,1-4-4V316.91A4,4,0,0,1,117,312.91Z"/><path class="cls-15" d="M137.23,343.58a9.72,9.72,0,0,1-9.72,9.72h0a9.72,9.72,0,0,1-9.71-9.72v-5.4a9.72,9.72,0,0,1,9.71-9.72h0a9.72,9.72,0,0,1,9.72,9.72Z" transform="translate(0.41 0.41)"/><path class="cls-18" d="M129.18,347.39c-1.47,1.45-4.16-.34-5-4.09a10,10,0,0,1,2.16-8.14c.94-.92,3.18-.38,4,2.53.61,2.1-.42,5.92-1.15,6.68-1.22,1.25-2.75-1-3-2.76a5.91,5.91,0,0,1,1-3.76c.38-.38,1.7.94,1.24,3" transform="translate(0.41 0.41)"/><path class="cls-18" d="M125,332.84a9.22,9.22,0,0,0-3.12,6.07" transform="translate(0.41 0.41)"/><path class="cls-18" d="M130.91,345.47c2.59-2.93,2.75-9.35-.6-12.63" transform="translate(0.41 0.41)"/><path class="cls-18" d="M122.11,342.65c0,1.06.68,4.36,2,5.91" transform="translate(0.41 0.41)"/><g class="cls-8"><rect x="354.53" y="326.52" width="112.53" height="75.77" rx="4.54"/><path d="M364.11,394.62a2.73,2.73,0,0,1-2.73-2.72V336.09a2.73,2.73,0,0,1,2.73-2.72h92.56a2.72,2.72,0,0,1,2.72,2.72V391.9a2.72,2.72,0,0,1-2.72,2.72Z" transform="translate(0.41 0.41)"/><path d="M476.75,398.12c0,2.08-2,3.76-4.54,3.76H348.57c-2.51,0-4.54-1.68-4.54-3.76v-5.64c0-2.08,2-3.76,4.54-3.76H472.21c2.51,0,4.54,1.68,4.54,3.76Z" transform="translate(0.41 0.41)"/><path d="M420.37,394.51c0,1.69-1.78,3.06-4,3.06h-12c-2.2,0-4-1.37-4-3.06h0c0-1.69,1.78-3.06,4-3.06h12c2.19,0,4,1.37,4,3.06Z" transform="translate(0.41 0.41)"/><path d="M412.64,329.72a2.26,2.26,0,1,1-2.25-2.25A2.26,2.26,0,0,1,412.64,329.72Z" transform="translate(0.41 0.41)"/><path d="M421.89,349.79a11.51,11.51,0,1,1-11.5-11.5A11.5,11.5,0,0,1,421.89,349.79Z" transform="translate(0.41 0.41)"/><path d="M416.11,352.75a3.42,3.42,0,0,0-3.42-3.42h-.94a3.73,3.73,0,1,0-2.73,0h-.93a3.42,3.42,0,0,0-3.42,3.42l-.79,4.69h13Z" transform="translate(0.41 0.41)"/><path d="M437.46,374.38a6.08,6.08,0,0,1-6.07,6.08H389.76a6.08,6.08,0,0,1-6.08-6.08h0a6.08,6.08,0,0,1,6.08-6.08h41.63a6.08,6.08,0,0,1,6.07,6.08Z" transform="translate(0.41 0.41)"/><polygon points="395.38 372.67 394.59 371.56 391.89 373.47 391.89 370.17 390.53 370.17 390.53 373.47 387.84 371.56 387.05 372.67 390.03 374.79 387.05 376.92 387.84 378.03 390.53 376.11 390.53 379.42 391.89 379.42 391.89 376.11 394.59 378.03 395.38 376.92 392.39 374.79 395.38 372.67"/><polygon points="405.21 372.67 404.42 371.56 401.73 373.47 401.73 370.17 400.36 370.17 400.36 373.47 397.67 371.56 396.88 372.67 399.86 374.79 396.88 376.92 397.67 378.03 400.36 376.11 400.36 379.42 401.73 379.42 401.73 376.11 404.42 378.03 405.21 376.92 402.22 374.79 405.21 372.67"/><polygon points="415.04 372.67 414.25 371.56 411.55 373.47 411.55 370.17 410.19 370.17 410.19 373.47 407.5 371.56 406.7 372.67 409.69 374.79 406.7 376.92 407.5 378.03 410.19 376.11 410.19 379.42 411.55 379.42 411.55 376.11 414.25 378.03 415.04 376.92 412.05 374.79 415.04 372.67"/><polygon points="424.87 372.67 424.08 371.56 421.38 373.47 421.38 370.17 420.02 370.17 420.02 373.47 417.32 371.56 416.53 372.67 419.52 374.79 416.53 376.92 417.32 378.03 420.02 376.11 420.02 379.42 421.38 379.42 421.38 376.11 424.08 378.03 424.87 376.92 421.88 374.79 424.87 372.67"/><polygon points="434.7 372.67 433.91 371.56 431.21 373.47 431.21 370.17 429.85 370.17 429.85 373.47 427.15 371.56 426.36 372.67 429.35 374.79 426.36 376.92 427.15 378.03 429.85 376.11 429.85 379.42 431.21 379.42 431.21 376.11 433.91 378.03 434.7 376.92 431.71 374.79 434.7 372.67"/></g><rect class="cls-10" x="349.53" y="321.52" width="112.53" height="75.77" rx="4.54"/><path class="cls-11" d="M359.11,389.62a2.73,2.73,0,0,1-2.73-2.72V331.09a2.73,2.73,0,0,1,2.73-2.72h92.56a2.72,2.72,0,0,1,2.72,2.72V386.9a2.72,2.72,0,0,1-2.72,2.72Z" transform="translate(0.41 0.41)"/><path class="cls-9" d="M471.75,393.12c0,2.08-2,3.76-4.54,3.76H343.57c-2.51,0-4.54-1.68-4.54-3.76v-5.64c0-2.08,2-3.76,4.54-3.76H467.21c2.51,0,4.54,1.68,4.54,3.76Z" transform="translate(0.41 0.41)"/><path class="cls-10" d="M415.37,389.51c0,1.69-1.78,3.06-4,3.06h-12c-2.2,0-4-1.37-4-3.06h0c0-1.69,1.78-3.06,4-3.06h12c2.19,0,4,1.37,4,3.06Z" transform="translate(0.41 0.41)"/><path class="cls-11" d="M407.64,324.72a2.26,2.26,0,1,1-2.25-2.25A2.26,2.26,0,0,1,407.64,324.72Z" transform="translate(0.41 0.41)"/><path class="cls-10" d="M416.89,344.79a11.51,11.51,0,1,1-11.5-11.5A11.5,11.5,0,0,1,416.89,344.79Z" transform="translate(0.41 0.41)"/><path class="cls-4" d="M411.11,347.75a3.42,3.42,0,0,0-3.42-3.42h-.94a3.73,3.73,0,1,0-2.73,0h-.93a3.42,3.42,0,0,0-3.42,3.42l-.79,4.69h13Z" transform="translate(0.41 0.41)"/><path class="cls-4" d="M432.46,369.38a6.08,6.08,0,0,1-6.07,6.08H384.76a6.08,6.08,0,0,1-6.08-6.08h0a6.08,6.08,0,0,1,6.08-6.08h41.63a6.08,6.08,0,0,1,6.07,6.08Z" transform="translate(0.41 0.41)"/><polygon class="cls-9" points="390.38 367.67 389.59 366.56 386.89 368.47 386.89 365.17 385.53 365.17 385.53 368.47 382.84 366.56 382.05 367.67 385.03 369.79 382.05 371.92 382.84 373.03 385.53 371.11 385.53 374.42 386.89 374.42 386.89 371.11 389.59 373.03 390.38 371.92 387.39 369.79 390.38 367.67"/><polygon class="cls-9" points="400.21 367.67 399.42 366.56 396.73 368.47 396.73 365.17 395.36 365.17 395.36 368.47 392.67 366.56 391.88 367.67 394.86 369.79 391.88 371.92 392.67 373.03 395.36 371.11 395.36 374.42 396.73 374.42 396.73 371.11 399.42 373.03 400.21 371.92 397.22 369.79 400.21 367.67"/><polygon class="cls-9" points="410.04 367.67 409.25 366.56 406.55 368.47 406.55 365.17 405.19 365.17 405.19 368.47 402.5 366.56 401.7 367.67 404.69 369.79 401.7 371.92 402.5 373.03 405.19 371.11 405.19 374.42 406.55 374.42 406.55 371.11 409.25 373.03 410.04 371.92 407.05 369.79 410.04 367.67"/><polygon class="cls-9" points="419.87 367.67 419.08 366.56 416.38 368.47 416.38 365.17 415.02 365.17 415.02 368.47 412.32 366.56 411.53 367.67 414.52 369.79 411.53 371.92 412.32 373.03 415.02 371.11 415.02 374.42 416.38 374.42 416.38 371.11 419.08 373.03 419.87 371.92 416.88 369.79 419.87 367.67"/><polygon class="cls-9" points="429.7 367.67 428.91 366.56 426.21 368.47 426.21 365.17 424.85 365.17 424.85 368.47 422.15 366.56 421.36 367.67 424.35 369.79 421.36 371.92 422.15 373.03 424.85 371.11 424.85 374.42 426.21 374.42 426.21 371.11 428.91 373.03 429.7 371.92 426.71 369.79 429.7 367.67"/><g class="cls-8"><rect x="332.1" y="315.13" width="56.19" height="34.77" rx="3.47"/><rect x="332.1" y="322.55" width="56.19" height="8.36"/><rect x="339.19" y="335.14" width="21.96" height="2.57"/><rect x="339.19" y="340.55" width="10.98" height="2.57"/></g><rect class="cls-4" x="327.1" y="310.13" width="56.19" height="34.77" rx="3.47"/><rect class="cls-14" x="327.1" y="317.55" width="56.19" height="8.36"/><rect class="cls-13" x="334.19" y="330.14" width="21.96" height="2.57"/><rect class="cls-13" x="334.19" y="335.55" width="10.98" height="2.57"/><g class="cls-8"><rect x="396.25" y="204.81" width="17.93" height="29.77" rx="1.62"/><rect x="398.4" y="211.67" width="3.56" height="3.77"/><rect x="408.46" y="211.67" width="3.56" height="3.77"/><rect x="389.69" y="219.69" width="31.05" height="51.56" rx="11.21"/><rect x="392.49" y="222.49" width="25.44" height="45.96" rx="8.41"/><path d="M412.43,249.05H397.17a1.53,1.53,0,0,0-1.53,1.52v9.05a1.53,1.53,0,0,0,1.53,1.52h15.26a1.53,1.53,0,0,0,1.53-1.52v-9.05A1.53,1.53,0,0,0,412.43,249.05Z" transform="translate(0.41 0.41)"/><path d="M411.44,249.05H410.1v-4.5a2.7,2.7,0,0,0-2.69-2.69h-5.22a2.7,2.7,0,0,0-2.69,2.69V249h-1.34v-4.5a4,4,0,0,1,4-4h5.22c2.22,0,4,1.81,4,4.49Z" transform="translate(0.41 0.41)"/><path d="M407.35,258.07l-1.65-2.86a1.93,1.93,0,1,0-1.8,0l-1.65,2.86c-.19.32,0,.58.33.58H407C407.39,258.65,407.54,258.39,407.35,258.07Z" transform="translate(0.41 0.41)"/></g><rect class="cls-17" x="391.25" y="199.81" width="17.93" height="29.77" rx="1.62"/><rect class="cls-14" x="393.4" y="206.67" width="3.56" height="3.77"/><rect class="cls-14" x="403.46" y="206.67" width="3.56" height="3.77"/><rect class="cls-14" x="384.69" y="214.69" width="31.05" height="51.56" rx="11.21"/><rect class="cls-13" x="387.49" y="217.49" width="25.44" height="45.96" rx="8.41"/><path class="cls-15" d="M407.43,244.05H392.17a1.53,1.53,0,0,0-1.53,1.52v9.05a1.53,1.53,0,0,0,1.53,1.52h15.26a1.53,1.53,0,0,0,1.53-1.52v-9.05A1.53,1.53,0,0,0,407.43,244.05Z" transform="translate(0.41 0.41)"/><path class="cls-15" d="M406.44,244.05H405.1v-4.5a2.7,2.7,0,0,0-2.69-2.69h-5.22a2.7,2.7,0,0,0-2.69,2.69V244h-1.34v-4.5a4,4,0,0,1,4-4h5.22c2.22,0,4,1.81,4,4.49Z" transform="translate(0.41 0.41)"/><path class="cls-13" d="M402.35,253.07l-1.65-2.86a1.93,1.93,0,1,0-1.8,0l-1.65,2.86c-.19.32,0,.58.33.58H402C402.39,253.65,402.54,253.39,402.35,253.07Z" transform="translate(0.41 0.41)"/><g class="cls-8"><path d="M247.91,406.42l.1,9.66c0,3.4,8.95,6.06,19.91,5.95s19.81-3,19.78-6.35l-.1-9.66" transform="translate(0.41 0.41)"/><path d="M249.33,404.13a3.06,3.06,0,0,0-1.42,2.29c0,3.4,9,6.06,19.91,5.95s19.81-2.95,19.78-6.35a2.94,2.94,0,0,0-1.31-2.14" transform="translate(0.41 0.41)"/><path d="M247.76,391.89l.1,9.66c0,3.39,8.95,6.05,19.91,5.94s19.81-2.95,19.78-6.35l-.1-9.66" transform="translate(0.41 0.41)"/><path d="M249.18,389.6a3,3,0,0,0-1.42,2.29c0,3.39,8.95,6.05,19.91,5.94s19.81-2.95,19.78-6.35a2.94,2.94,0,0,0-1.31-2.14" transform="translate(0.41 0.41)"/><path d="M247.62,377.64l.09,9.66c0,3.39,9,6.06,19.91,5.94s19.82-2.95,19.78-6.34l-.1-9.66" transform="translate(0.41 0.41)"/><path d="M287.3,377.24c0,3.39-8.82,6.23-19.78,6.35s-19.87-2.55-19.9-5.95,8.82-6.23,19.78-6.34S287.27,373.84,287.3,377.24Z" transform="translate(0.41 0.41)"/><path d="M216.33,421.19l.12,12c.05,4.2,11.08,7.5,24.65,7.36s24.53-3.67,24.48-7.86l-.12-12" transform="translate(0.41 0.41)"/><path d="M218.08,418.36a3.76,3.76,0,0,0-1.75,2.83c0,4.2,11.08,7.5,24.64,7.36s24.53-3.66,24.49-7.86a3.62,3.62,0,0,0-1.62-2.65" transform="translate(0.41 0.41)"/><path d="M216.15,403.2l.12,11.95c0,4.2,11.07,7.5,24.64,7.36s24.53-3.66,24.49-7.86l-.13-11.95" transform="translate(0.41 0.41)"/><path d="M217.9,400.36a3.79,3.79,0,0,0-1.75,2.84c0,4.2,11.07,7.49,24.64,7.35s24.53-3.65,24.48-7.85a3.57,3.57,0,0,0-1.61-2.66" transform="translate(0.41 0.41)"/><path d="M216,385.56l.12,12c0,4.2,11.07,7.5,24.64,7.35s24.53-3.65,24.49-7.85l-.12-12" transform="translate(0.41 0.41)"/><path d="M265.1,385.06c0,4.2-10.92,7.72-24.49,7.86S216,389.76,216,385.56s10.92-7.72,24.48-7.86S265.05,380.86,265.1,385.06Z" transform="translate(0.41 0.41)"/><path d="M282.8,414.33a15.66,15.66,0,1,1-15.65-15.65A15.66,15.66,0,0,1,282.8,414.33Z" transform="translate(0.41 0.41)"/><path d="M273.88,411.1h-12.8a1.82,1.82,0,0,0-1.81,1.81v10.75a1.82,1.82,0,0,0,1.81,1.81h12.8a1.82,1.82,0,0,0,1.81-1.81V412.91A1.82,1.82,0,0,0,273.88,411.1Z" transform="translate(0.41 0.41)"/><path d="M273,411.1h-1.6v-5.34a3.19,3.19,0,0,0-3.19-3.19h-1.54a3.19,3.19,0,0,0-3.19,3.19v5.34H261.9v-5.34a4.79,4.79,0,0,1,4.78-4.79h1.54c2.64,0,4.79,2.15,4.79,5.34Z" transform="translate(0.41 0.41)"/><path d="M270.51,421.15l-2-3.4a2.3,2.3,0,1,0-2.14,0l-2,3.4c-.22.38,0,.69.39.69h5.27C270.55,421.84,270.73,421.53,270.51,421.15Z" transform="translate(0.41 0.41)"/></g><path class="cls-13" d="M242.91,401.42l.1,9.66c0,3.4,9,6.06,19.91,5.95s19.81-3,19.78-6.35l-.1-9.66" transform="translate(0.41 0.41)"/><path class="cls-14" d="M244.33,399.13a3.06,3.06,0,0,0-1.42,2.29c0,3.4,9,6.06,19.91,5.95s19.81-2.95,19.78-6.35a2.94,2.94,0,0,0-1.31-2.14" transform="translate(0.41 0.41)"/><path class="cls-13" d="M242.76,386.89l.1,9.66c0,3.39,8.95,6.05,19.91,5.94s19.81-2.95,19.78-6.35l-.1-9.66" transform="translate(0.41 0.41)"/><path class="cls-14" d="M244.18,384.6a3,3,0,0,0-1.42,2.29c0,3.39,9,6.05,19.91,5.94s19.81-2.95,19.78-6.35a2.94,2.94,0,0,0-1.31-2.14" transform="translate(0.41 0.41)"/><path class="cls-13" d="M242.62,372.64l.09,9.66c0,3.39,8.95,6.06,19.91,5.94s19.82-2.95,19.78-6.34l-.1-9.66" transform="translate(0.41 0.41)"/><path class="cls-14" d="M282.3,372.24c0,3.39-8.82,6.23-19.78,6.35s-19.87-2.55-19.9-5.95,8.82-6.23,19.78-6.34S282.27,368.84,282.3,372.24Z" transform="translate(0.41 0.41)"/><path class="cls-17" d="M211.33,416.19l.12,12c.05,4.2,11.08,7.5,24.65,7.36s24.53-3.67,24.48-7.86l-.12-12" transform="translate(0.41 0.41)"/><path class="cls-13" d="M213.08,413.36a3.76,3.76,0,0,0-1.75,2.83c0,4.2,11.08,7.5,24.64,7.36s24.53-3.66,24.49-7.86a3.62,3.62,0,0,0-1.62-2.65" transform="translate(0.41 0.41)"/><path class="cls-17" d="M211.15,398.2l.12,11.95c0,4.2,11.07,7.5,24.64,7.36s24.53-3.66,24.49-7.86l-.13-11.95" transform="translate(0.41 0.41)"/><path class="cls-13" d="M212.9,395.36a3.79,3.79,0,0,0-1.75,2.84c0,4.2,11.07,7.49,24.64,7.35s24.53-3.65,24.48-7.85a3.57,3.57,0,0,0-1.61-2.66" transform="translate(0.41 0.41)"/><path class="cls-17" d="M211,380.56l.12,12c0,4.2,11.07,7.5,24.64,7.35s24.53-3.65,24.49-7.85l-.12-12" transform="translate(0.41 0.41)"/><path class="cls-13" d="M260.1,380.06c0,4.2-10.92,7.72-24.49,7.86S211,384.76,211,380.56s10.92-7.72,24.48-7.86S260.05,375.86,260.1,380.06Z" transform="translate(0.41 0.41)"/><path class="cls-14" d="M277.8,409.33a15.66,15.66,0,1,1-15.65-15.65A15.66,15.66,0,0,1,277.8,409.33Z" transform="translate(0.41 0.41)"/><path class="cls-15" d="M268.88,406.1h-12.8a1.82,1.82,0,0,0-1.81,1.81v10.75a1.82,1.82,0,0,0,1.81,1.81h12.8a1.82,1.82,0,0,0,1.81-1.81V407.91A1.82,1.82,0,0,0,268.88,406.1Z" transform="translate(0.41 0.41)"/><path class="cls-15" d="M268,406.1h-1.6v-5.34a3.19,3.19,0,0,0-3.19-3.19h-1.54a3.19,3.19,0,0,0-3.19,3.19v5.34H256.9v-5.34a4.79,4.79,0,0,1,4.78-4.79h1.54c2.64,0,4.79,2.15,4.79,5.34Z" transform="translate(0.41 0.41)"/><path class="cls-14" d="M265.51,416.15l-2-3.4a2.3,2.3,0,1,0-2.14,0l-2,3.4c-.22.38,0,.69.39.69h5.27C265.55,416.84,265.73,416.53,265.51,416.15Z" transform="translate(0.41 0.41)"/><polyline class="cls-19" points="232.27 237.52 250.34 260.87 282.01 219.95"/></g><g id="Artboard_2" data-name="Artboard 2"><g class="cls-3"><path class="cls-4" d="M749.21,76.36A6.22,6.22,0,1,1,743,70.15,6.22,6.22,0,0,1,749.21,76.36Z" transform="translate(0.41 0.41)"/><path class="cls-4" d="M718.55,346.61a6.22,6.22,0,1,1-6.22-6.21A6.23,6.23,0,0,1,718.55,346.61Z" transform="translate(0.41 0.41)"/><path class="cls-4" d="M892.14,209.42a6.22,6.22,0,1,1-6.22-6.21A6.22,6.22,0,0,1,892.14,209.42Z" transform="translate(0.41 0.41)"/><path class="cls-4" d="M1161.18,326.68a6.22,6.22,0,1,1-6.22-6.22A6.21,6.21,0,0,1,1161.18,326.68Z" transform="translate(0.41 0.41)"/><path class="cls-4" d="M1354.55,174.68a6.22,6.22,0,1,1-6.22-6.22A6.22,6.22,0,0,1,1354.55,174.68Z" transform="translate(0.41 0.41)"/><path class="cls-4" d="M1170.53,43a6.22,6.22,0,1,1-6.22-6.21A6.22,6.22,0,0,1,1170.53,43Z" transform="translate(0.41 0.41)"/><path class="cls-4" d="M1284.79,447.56a6.21,6.21,0,1,1-6.21-6.21A6.21,6.21,0,0,1,1284.79,447.56Z" transform="translate(0.41 0.41)"/><path class="cls-4" d="M924.2,428.73a6.22,6.22,0,1,1-6.21-6.21A6.22,6.22,0,0,1,924.2,428.73Z" transform="translate(0.41 0.41)"/><line class="cls-20" x1="743.41" y1="76.77" x2="886.33" y2="209.83"/><line class="cls-20" x1="886.33" y1="209.83" x2="712.74" y2="347.02"/><line class="cls-20" x1="712.74" y1="347.02" x2="918.39" y2="429.14"/><line class="cls-20" x1="918.39" y1="429.14" x2="1155.37" y2="327.09"/><line class="cls-20" x1="1155.37" y1="327.09" x2="1278.99" y2="447.97"/><line class="cls-20" x1="1278.99" y1="447.97" x2="1348.74" y2="175.08"/><line class="cls-20" x1="1278.99" y1="447.97" x2="1164.72" y2="43.45"/><line class="cls-20" x1="1164.72" y1="43.45" x2="1348.74" y2="175.08"/><line class="cls-20" x1="1164.72" y1="43.45" x2="1155.37" y2="327.09"/><line class="cls-20" x1="1164.72" y1="43.45" x2="886.33" y2="209.83"/><line class="cls-20" x1="743.41" y1="76.77" x2="712.74" y2="347.02"/><line class="cls-20" x1="743.41" y1="76.77" x2="1348.74" y2="175.08"/><line class="cls-20" x1="918.39" y1="429.14" x2="743.41" y2="76.77"/><line class="cls-20" x1="918.39" y1="429.14" x2="1164.72" y2="43.45"/><line class="cls-20" x1="1155.37" y1="327.09" x2="886.33" y2="209.83"/><line class="cls-20" x1="886.33" y1="209.83" x2="1348.74" y2="175.08"/><line class="cls-20" x1="712.74" y1="347.02" x2="1155.37" y2="327.09"/></g><g class="cls-6"><path class="cls-4" d="M1302.46,55.51a6,6,0,1,0,6-6A6,6,0,0,0,1302.46,55.51Z" transform="translate(0.41 0.41)"/><path class="cls-4" d="M1296.43,362.87a6,6,0,1,0,6-6A6,6,0,0,0,1296.43,362.87Z" transform="translate(0.41 0.41)"/><path class="cls-4" d="M1164.06,216.76a6,6,0,1,0,6-6A6,6,0,0,0,1164.06,216.76Z" transform="translate(0.41 0.41)"/><path class="cls-4" d="M884.37,312.45a7.5,7.5,0,1,0,7.5-7.5A7.5,7.5,0,0,0,884.37,312.45Z" transform="translate(0.41 0.41)"/><path class="cls-4" d="M743.18,227.61a6,6,0,1,0,6-6A6,6,0,0,0,743.18,227.61Z" transform="translate(0.41 0.41)"/><path class="cls-4" d="M851.82,29.57a6,6,0,1,0,6-6A6,6,0,0,0,851.82,29.57Z" transform="translate(0.41 0.41)"/><path class="cls-4" d="M793,435.51a6,6,0,1,0,6-6A6,6,0,0,0,793,435.51Z" transform="translate(0.41 0.41)"/><path class="cls-4" d="M1136.69,441.54a6,6,0,1,0,6-6A6,6,0,0,0,1136.69,441.54Z" transform="translate(0.41 0.41)"/><line class="cls-21" x1="1308.9" y1="55.91" x2="1170.5" y2="217.17"/><line class="cls-21" x1="1170.5" y1="217.17" x2="1302.87" y2="363.28"/><line class="cls-21" x1="1302.87" y1="363.28" x2="1143.13" y2="441.95"/><line class="cls-21" x1="1143.13" y1="441.95" x2="892.28" y2="312.86"/><line class="cls-21" x1="892.28" y1="312.86" x2="799.46" y2="435.92"/><line class="cls-21" x1="799.46" y1="435.92" x2="749.62" y2="228.02"/><line class="cls-21" x1="799.46" y1="435.92" x2="858.26" y2="29.98"/><line class="cls-21" x1="858.26" y1="29.98" x2="749.62" y2="228.02"/><line class="cls-21" x1="858.26" y1="29.98" x2="892.28" y2="312.86"/><line class="cls-21" x1="858.26" y1="29.98" x2="1170.5" y2="217.17"/><line class="cls-21" x1="1308.9" y1="55.91" x2="1302.87" y2="363.28"/><line class="cls-21" x1="1308.9" y1="55.91" x2="749.62" y2="228.02"/><line class="cls-21" x1="1143.13" y1="441.95" x2="1308.9" y2="55.91"/><line class="cls-21" x1="1143.13" y1="441.95" x2="858.26" y2="29.98"/><line class="cls-21" x1="892.28" y1="312.86" x2="1170.5" y2="217.17"/><line class="cls-21" x1="1170.5" y1="217.17" x2="749.62" y2="228.02"/><line class="cls-21" x1="1302.87" y1="363.28" x2="892.28" y2="312.86"/></g><g class="cls-8"><path d="M1081.81,90.14a12.61,12.61,0,0,0-18.7-11s0-.06,0-.1a25.19,25.19,0,0,0-49.3-7.27A18.51,18.51,0,0,0,988.2,88.82v6.6a12.42,12.42,0,0,0,12.42,12.42h68.77a12.42,12.42,0,0,0,12.42-12.42Z" transform="translate(0.41 0.41)"/></g><path class="cls-4" d="M1078.13,87a12.61,12.61,0,0,0-18.7-11V75.9a25.19,25.19,0,0,0-49.3-7.28A18.3,18.3,0,0,0,1003,67.2a18.51,18.51,0,0,0-18.51,18.51v6.6a12.43,12.43,0,0,0,12.43,12.42h68.76a12.43,12.43,0,0,0,12.43-12.42Z" transform="translate(0.41 0.41)"/><g class="cls-8"><path d="M1029.21,80.27A7.31,7.31,0,0,0,1021.9,73a7.24,7.24,0,0,0-3.53.91v0a14.62,14.62,0,0,0-28.61-4.23,10.75,10.75,0,0,0-14.87,9.92v3.83a7.21,7.21,0,0,0,7.21,7.21H1022a7.21,7.21,0,0,0,7.21-7.21Z" transform="translate(0.41 0.41)"/></g><path class="cls-4" d="M1025.53,76.58a7.32,7.32,0,0,0-10.85-6.4v-.06a14.62,14.62,0,0,0-28.61-4.22,10.74,10.74,0,0,0-14.86,9.92v3.83a7.21,7.21,0,0,0,7.21,7.21h39.9a7.21,7.21,0,0,0,7.21-7.21Z" transform="translate(0.41 0.41)"/><g class="cls-8"><path d="M893.27,102.07H861.61a3.72,3.72,0,0,0-3.72,3.72v52.42a3.73,3.73,0,0,0,3.72,3.72h39.58a3.72,3.72,0,0,0,3.72-3.72v-44.5Z" transform="translate(0.41 0.41)"/><path d="M893.27,110a3.71,3.71,0,0,0,3.72,3.72h7.92l-11.64-11.64Z" transform="translate(0.41 0.41)"/><rect x="883.06" y="134.27" width="14.58" height="16.05"/><rect x="867.62" y="115.38" width="18.45" height="3.46"/><rect x="867.62" y="121.67" width="30.01" height="3.46"/><rect x="867.62" y="127.97" width="30.01" height="3.46"/><rect x="867.62" y="134.27" width="12.47" height="3.46"/><rect x="867.62" y="140.57" width="12.47" height="3.46"/><rect x="867.62" y="146.86" width="12.47" height="3.46"/></g><path class="cls-9" d="M887.91,96.71H856.25a3.73,3.73,0,0,0-3.72,3.72v52.42a3.72,3.72,0,0,0,3.72,3.72h39.59a3.72,3.72,0,0,0,3.72-3.72V108.36Z" transform="translate(0.41 0.41)"/><path class="cls-10" d="M887.91,104.64a3.73,3.73,0,0,0,3.72,3.72h7.93L887.91,96.71Z" transform="translate(0.41 0.41)"/><rect class="cls-11" x="877.7" y="128.91" width="14.58" height="16.05"/><rect class="cls-11" x="862.27" y="110.02" width="18.45" height="3.46"/><rect class="cls-11" x="862.27" y="116.32" width="30.01" height="3.46"/><rect class="cls-11" x="862.27" y="122.61" width="30.01" height="3.46"/><rect class="cls-11" x="862.27" y="128.91" width="12.47" height="3.46"/><rect class="cls-11" x="862.27" y="135.21" width="12.47" height="3.46"/><rect class="cls-11" x="862.27" y="141.51" width="12.47" height="3.46"/><g class="cls-8"><path d="M859.18,69.24H827.52A3.72,3.72,0,0,0,823.8,73v52.42a3.73,3.73,0,0,0,3.72,3.72h39.59a3.73,3.73,0,0,0,3.72-3.72V80.88Z" transform="translate(0.41 0.41)"/><path d="M859.18,77.16a3.72,3.72,0,0,0,3.72,3.72h7.93L859.18,69.24Z" transform="translate(0.41 0.41)"/><path d="M844.79,82.76c-4.68-1.39-6.06-1-6.06-1V96.16a7.42,7.42,0,0,0-2.62-.45c-2.74,0-5,1.34-5,3s2.22,3,5,3,5-1.35,5-3a2.07,2.07,0,0,0-.27-1V87.39A7.64,7.64,0,0,1,846,88.91a5,5,0,0,0,6.34,0C848.37,88.75,848.59,83.9,844.79,82.76Z" transform="translate(0.41 0.41)"/><path d="M859.59,100.54l-14.05-7.21V107.7a7.65,7.65,0,0,0-2.62-.45c-2.74,0-5,1.35-5,3s2.22,3,5,3,5-1.34,5-3a2,2,0,0,0-.27-1V101.6l9.91,5.1v7.36a7.59,7.59,0,0,0-2.61-.45c-2.74,0-5,1.35-5,3s2.22,3,5,3,5-1.34,5-3a2,2,0,0,0-.28-1Z" transform="translate(0.41 0.41)"/></g><path class="cls-4" d="M854.66,64.72H823a3.72,3.72,0,0,0-3.72,3.72v52.42a3.73,3.73,0,0,0,3.72,3.72h39.59a3.73,3.73,0,0,0,3.72-3.72V76.36Z" transform="translate(0.41 0.41)"/><path class="cls-12" d="M854.66,72.64a3.72,3.72,0,0,0,3.72,3.72h7.93L854.66,64.72Z" transform="translate(0.41 0.41)"/><path class="cls-13" d="M840.27,78.24c-4.68-1.39-6.06-1-6.06-1V91.64a7.41,7.41,0,0,0-2.62-.46c-2.74,0-5,1.35-5,3s2.22,3,5,3,5-1.35,5-3a2,2,0,0,0-.28-1V82.87a7.69,7.69,0,0,1,5.24,1.51,4.94,4.94,0,0,0,6.34,0C843.85,84.23,844.07,79.37,840.27,78.24Z" transform="translate(0.41 0.41)"/><path class="cls-14" d="M855.07,96,841,88.8v14.38a7.65,7.65,0,0,0-2.62-.45c-2.74,0-5,1.35-5,3s2.22,3,5,3,5-1.34,5-3a2,2,0,0,0-.27-1V97.08l9.91,5.1v7.36a7.59,7.59,0,0,0-2.61-.45c-2.74,0-5,1.35-5,3s2.22,3,5,3,5-1.34,5-3a2,2,0,0,0-.28-1Z" transform="translate(0.41 0.41)"/><g class="cls-8"><rect x="806.72" y="233.37" width="73.16" height="97.94" rx="4.32"/><rect x="814.16" y="242.31" width="58.28" height="77.2" rx="4.32"/><path d="M844.67,237.92a1.79,1.79,0,1,1-1.78-1.79A1.78,1.78,0,0,1,844.67,237.92Z" transform="translate(0.41 0.41)"/><path d="M846.84,325.05a4,4,0,1,1-4-4A4,4,0,0,1,846.84,325.05Z" transform="translate(0.41 0.41)"/><path d="M856.41,279.66H829.47a3.83,3.83,0,0,0-3.81,3.81v22.62a3.82,3.82,0,0,0,3.81,3.81h26.94a3.82,3.82,0,0,0,3.81-3.81V283.47A3.82,3.82,0,0,0,856.41,279.66Z" transform="translate(0.41 0.41)"/><path d="M854.58,279.66h-3.35V268.4a6.73,6.73,0,0,0-6.72-6.72h-3.24a6.73,6.73,0,0,0-6.72,6.72v11.25h-3.36V268.4a10.08,10.08,0,0,1,10.08-10.07h3.24c5.55,0,10.07,4.51,10.07,11.22Z" transform="translate(0.41 0.41)"/><path d="M849.32,300.82l-4.13-7.16a4.84,4.84,0,1,0-4.5,0l-4.13,7.16c-.46.79-.08,1.44.83,1.44h11.1C849.41,302.26,849.78,301.61,849.32,300.82Z" transform="translate(0.41 0.41)"/></g><rect class="cls-10" x="801.36" y="228.02" width="73.16" height="97.94" rx="4.32"/><rect class="cls-11" x="808.8" y="236.95" width="58.28" height="77.2" rx="4.32"/><path class="cls-9" d="M839.31,232.56a1.78,1.78,0,1,1-1.78-1.78A1.78,1.78,0,0,1,839.31,232.56Z" transform="translate(0.41 0.41)"/><path class="cls-9" d="M841.49,319.69a4,4,0,1,1-4-3.95A4,4,0,0,1,841.49,319.69Z" transform="translate(0.41 0.41)"/><path class="cls-15" d="M851.05,274.3H824.12a3.83,3.83,0,0,0-3.82,3.81v22.62a3.82,3.82,0,0,0,3.82,3.81h26.93a3.82,3.82,0,0,0,3.82-3.81V278.11A3.83,3.83,0,0,0,851.05,274.3Z" transform="translate(0.41 0.41)"/><path class="cls-15" d="M849.23,274.3h-3.36V263a6.72,6.72,0,0,0-6.72-6.71h-3.24a6.73,6.73,0,0,0-6.72,6.71v11.25h-3.35V263A10.08,10.08,0,0,1,835.91,253h3.24c5.56,0,10.08,4.52,10.08,11.23Z" transform="translate(0.41 0.41)"/><path class="cls-11" d="M844,295.46l-4.13-7.15a4.84,4.84,0,1,0-4.51,0l-4.13,7.15c-.45.8-.08,1.45.84,1.45h11.09C844.05,296.91,844.42,296.26,844,295.46Z" transform="translate(0.41 0.41)"/><g class="cls-8"><path d="M1272.2,132.5V87.85a4.75,4.75,0,0,0-2.43-4.13l-26.91,26.91,26.31,26.31A4.78,4.78,0,0,0,1272.2,132.5Z" transform="translate(0.41 0.41)"/><path d="M1189.3,83.72a4.74,4.74,0,0,0-2.42,4.13V132.5a4.78,4.78,0,0,0,3,4.44l26.3-26.31Z" transform="translate(0.41 0.41)"/><path d="M1267.42,137.28a4.87,4.87,0,0,0,1.75-.34l-26.31-26.31-9.95,10a4.78,4.78,0,0,1-6.75,0l-10-10-26.3,26.31a4.83,4.83,0,0,0,1.75.34Z" transform="translate(0.41 0.41)"/><path d="M1232.91,120.58l36.86-36.86a4.7,4.7,0,0,0-2.35-.64h-75.76a4.71,4.71,0,0,0-2.36.64l36.86,36.86A4.78,4.78,0,0,0,1232.91,120.58Z" transform="translate(0.41 0.41)"/><path d="M1235.67,112.3a13.75,13.75,0,0,1-6.73,1.52c-6.2,0-11.46-4.54-11.46-11.8,0-7.79,5.41-14.53,13.81-14.53,6.58,0,11,4.62,11,10.93,0,5.68-3.17,9-6.73,9-1.51,0-2.91-1-2.8-3.32h-.15a5.93,5.93,0,0,1-5.33,3.32c-2.19,0-4.08-1.77-4.08-4.76a8.92,8.92,0,0,1,9-9,10,10,0,0,1,4,.79l-1.28,6.85c-.57,2.87-.12,4.19,1.13,4.23,1.93,0,4.09-2.53,4.09-6.92,0-5.48-3.29-9.42-9.16-9.42-6.16,0-11.34,4.88-11.34,12.56,0,6.32,4.12,10.21,9.72,10.21a11.81,11.81,0,0,0,5.71-1.32ZM1233.59,96a6.28,6.28,0,0,0-1.89-.27c-3.33,0-6,3.14-6,6.81,0,1.66.83,2.87,2.5,2.87,2.19,0,4.19-2.8,4.61-5.14Z" transform="translate(0.41 0.41)"/></g><path class="cls-10" d="M1266.84,127.15V82.5a4.76,4.76,0,0,0-2.42-4.14l-26.92,26.92,26.31,26.3A4.77,4.77,0,0,0,1266.84,127.15Z" transform="translate(0.41 0.41)"/><path class="cls-10" d="M1183.94,78.36a4.76,4.76,0,0,0-2.42,4.14v44.65a4.77,4.77,0,0,0,3,4.43l26.31-26.3Z" transform="translate(0.41 0.41)"/><path class="cls-11" d="M1262.07,131.92a4.81,4.81,0,0,0,1.74-.34l-26.31-26.3-9.94,9.94a4.77,4.77,0,0,1-6.76,0l-9.94-9.94-26.31,26.3a4.83,4.83,0,0,0,1.75.34Z" transform="translate(0.41 0.41)"/><path class="cls-9" d="M1227.56,115.22l36.86-36.86a4.83,4.83,0,0,0-2.35-.64H1186.3a4.84,4.84,0,0,0-2.36.64l36.86,36.86A4.77,4.77,0,0,0,1227.56,115.22Z" transform="translate(0.41 0.41)"/><path class="cls-4" d="M1230.32,107a13.87,13.87,0,0,1-6.74,1.51c-6.2,0-11.45-4.54-11.45-11.8,0-7.79,5.4-14.52,13.8-14.52,6.58,0,11,4.61,11,10.93,0,5.67-3.18,9-6.73,9-1.52,0-2.92-1-2.8-3.33h-.16a5.94,5.94,0,0,1-5.33,3.33c-2.19,0-4.08-1.78-4.08-4.77a8.92,8.92,0,0,1,9-9,10.07,10.07,0,0,1,4,.79L1229.56,96c-.56,2.87-.11,4.2,1.13,4.24,1.94,0,4.09-2.54,4.09-6.93,0-5.48-3.29-9.41-9.15-9.41-6.17,0-11.35,4.88-11.35,12.55,0,6.32,4.13,10.22,9.72,10.22a11.78,11.78,0,0,0,5.71-1.33Zm-2.08-16.34a6.34,6.34,0,0,0-1.89-.27c-3.33,0-6,3.14-6,6.81,0,1.67.84,2.88,2.5,2.88,2.19,0,4.2-2.8,4.61-5.15Z" transform="translate(0.41 0.41)"/><g class="cls-8"><rect x="863.89" y="308.55" width="42.37" height="66.96" rx="4.29"/><path d="M889.8,370.17a2.36,2.36,0,0,1-2.36,2.36H881.9a2.36,2.36,0,0,1-2.36-2.36h0a2.36,2.36,0,0,1,2.36-2.37h5.54a2.37,2.37,0,0,1,2.36,2.37Z" transform="translate(0.41 0.41)"/><path d="M889.8,312a1.29,1.29,0,0,1-1.29,1.29h-7.69a1.28,1.28,0,0,1-1.28-1.29h0a1.28,1.28,0,0,1,1.28-1.28h7.69A1.28,1.28,0,0,1,889.8,312Z" transform="translate(0.41 0.41)"/><rect x="869.2" y="315.85" width="31.76" height="49.84" rx="4.29"/><path d="M895.15,348.73a10.41,10.41,0,0,1-10.41,10.42h0a10.41,10.41,0,0,1-10.41-10.42V343a10.41,10.41,0,0,1,10.41-10.41h0A10.41,10.41,0,0,1,895.15,343Z" transform="translate(0.41 0.41)"/><path class="cls-22" d="M886.52,352.82c-1.57,1.55-4.46-.36-5.4-4.38a10.66,10.66,0,0,1,2.32-8.72c1-1,3.4-.41,4.31,2.71.66,2.25-.45,6.34-1.23,7.15-1.31,1.34-2.95-1.09-3.16-3a6.33,6.33,0,0,1,1-4c.41-.41,1.81,1,1.33,3.24" transform="translate(0.41 0.41)"/><path class="cls-22" d="M882.06,337.23a9.86,9.86,0,0,0-3.34,6.51" transform="translate(0.41 0.41)"/><path class="cls-22" d="M888.37,350.76c2.78-3.14,3-10-.64-13.53" transform="translate(0.41 0.41)"/><path class="cls-22" d="M879,347.73c0,1.14.73,4.68,2.17,6.34" transform="translate(0.41 0.41)"/></g><rect class="cls-13" x="858.54" y="303.19" width="42.37" height="66.96" rx="4.29"/><path class="cls-17" d="M884.44,364.81a2.36,2.36,0,0,1-2.36,2.36h-5.54a2.36,2.36,0,0,1-2.36-2.36h0a2.36,2.36,0,0,1,2.36-2.36h5.54a2.35,2.35,0,0,1,2.36,2.36Z" transform="translate(0.41 0.41)"/><path class="cls-17" d="M884.44,306.65a1.28,1.28,0,0,1-1.28,1.28h-7.69a1.28,1.28,0,0,1-1.29-1.28h0a1.29,1.29,0,0,1,1.29-1.29h7.69a1.28,1.28,0,0,1,1.28,1.29Z" transform="translate(0.41 0.41)"/><rect class="cls-14" x="863.84" y="310.49" width="31.76" height="49.84" rx="4.29"/><path class="cls-15" d="M889.79,343.38a10.41,10.41,0,0,1-10.41,10.41h0A10.41,10.41,0,0,1,869,343.38V337.6a10.42,10.42,0,0,1,10.41-10.42h0a10.42,10.42,0,0,1,10.41,10.42Z" transform="translate(0.41 0.41)"/><path class="cls-23" d="M881.16,347.46c-1.57,1.55-4.46-.36-5.4-4.38a10.71,10.71,0,0,1,2.32-8.72c1-1,3.41-.41,4.32,2.71.65,2.25-.45,6.34-1.24,7.15-1.31,1.34-2.94-1.09-3.16-3a6.39,6.39,0,0,1,1-4c.41-.41,1.82,1,1.33,3.25" transform="translate(0.41 0.41)"/><path class="cls-23" d="M876.7,331.88a9.9,9.9,0,0,0-3.34,6.5" transform="translate(0.41 0.41)"/><path class="cls-23" d="M883,345.41c2.77-3.14,2.94-10-.65-13.53" transform="translate(0.41 0.41)"/><path class="cls-23" d="M873.59,342.38c0,1.14.73,4.67,2.17,6.33" transform="translate(0.41 0.41)"/><g class="cls-8"><rect x="1203.73" y="330.42" width="120.55" height="81.18" rx="4.86"/><rect x="1211.5" y="338.2" width="105" height="65.62" rx="2.92"/><path d="M1334.69,407.16c0,2.22-2.18,4-4.86,4H1197.36c-2.68,0-4.86-1.81-4.86-4v-6c0-2.23,2.18-4,4.86-4h132.47c2.68,0,4.86,1.8,4.86,4Z" transform="translate(0.41 0.41)"/><path d="M1274.29,403.29c0,1.81-1.91,3.28-4.26,3.28h-12.87c-2.36,0-4.26-1.47-4.26-3.28h0c0-1.81,1.9-3.28,4.26-3.28H1270c2.35,0,4.26,1.47,4.26,3.28Z" transform="translate(0.41 0.41)"/><path d="M1266,333.88a2.42,2.42,0,1,1-2.42-2.41A2.42,2.42,0,0,1,1266,333.88Z" transform="translate(0.41 0.41)"/><path d="M1275.92,355.38a12.33,12.33,0,1,1-12.33-12.33A12.32,12.32,0,0,1,1275.92,355.38Z" transform="translate(0.41 0.41)"/><path d="M1269.72,358.55a3.66,3.66,0,0,0-3.66-3.66h-1a4,4,0,1,0-2.93,0h-1a3.66,3.66,0,0,0-3.66,3.66l-.84,5h13.93Z" transform="translate(0.41 0.41)"/><path d="M1292.6,381.73a6.51,6.51,0,0,1-6.51,6.51h-44.6a6.52,6.52,0,0,1-6.51-6.51h0a6.52,6.52,0,0,1,6.51-6.52h44.6a6.51,6.51,0,0,1,6.51,6.52Z" transform="translate(0.41 0.41)"/><polygon points="1247.49 379.87 1246.64 378.67 1243.75 380.72 1243.75 377.18 1242.29 377.18 1242.29 380.72 1239.4 378.67 1238.56 379.87 1241.76 382.13 1238.56 384.41 1239.4 385.6 1242.29 383.55 1242.29 387.09 1243.75 387.09 1243.75 383.55 1246.64 385.6 1247.49 384.41 1244.29 382.13 1247.49 379.87"/><polygon points="1258.02 379.87 1257.17 378.67 1254.29 380.72 1254.29 377.18 1252.82 377.18 1252.82 380.72 1249.94 378.67 1249.09 379.87 1252.29 382.13 1249.09 384.41 1249.94 385.6 1252.82 383.55 1252.82 387.09 1254.29 387.09 1254.29 383.55 1257.17 385.6 1258.02 384.41 1254.82 382.13 1258.02 379.87"/><polygon points="1268.55 379.87 1267.7 378.67 1264.82 380.72 1264.82 377.18 1263.35 377.18 1263.35 380.72 1260.47 378.67 1259.62 379.87 1262.82 382.13 1259.62 384.41 1260.47 385.6 1263.35 383.55 1263.35 387.09 1264.82 387.09 1264.82 383.55 1267.7 385.6 1268.55 384.41 1265.35 382.13 1268.55 379.87"/><polygon points="1279.08 379.87 1278.23 378.67 1275.35 380.72 1275.35 377.18 1273.88 377.18 1273.88 380.72 1271 378.67 1270.15 379.87 1273.35 382.13 1270.15 384.41 1271 385.6 1273.88 383.55 1273.88 387.09 1275.35 387.09 1275.35 383.55 1278.23 385.6 1279.08 384.41 1275.88 382.13 1279.08 379.87"/><polygon points="1289.61 379.87 1288.76 378.67 1285.88 380.72 1285.88 377.18 1284.41 377.18 1284.41 380.72 1281.53 378.67 1280.68 379.87 1283.88 382.13 1280.68 384.41 1281.53 385.6 1284.41 383.55 1284.41 387.09 1285.88 387.09 1285.88 383.55 1288.76 385.6 1289.61 384.41 1286.41 382.13 1289.61 379.87"/></g><rect class="cls-13" x="1198.37" y="325.06" width="120.55" height="81.18" rx="4.86"/><rect class="cls-14" x="1206.15" y="332.84" width="105" height="65.62" rx="2.92"/><path class="cls-17" d="M1329.33,401.8c0,2.23-2.17,4-4.86,4H1192c-2.69,0-4.86-1.8-4.86-4v-6c0-2.22,2.17-4,4.86-4h132.46c2.69,0,4.86,1.81,4.86,4Z" transform="translate(0.41 0.41)"/><path class="cls-13" d="M1268.93,397.93c0,1.82-1.9,3.28-4.25,3.28H1251.8c-2.35,0-4.26-1.46-4.26-3.28h0c0-1.81,1.91-3.28,4.26-3.28h12.88c2.35,0,4.25,1.47,4.25,3.28Z" transform="translate(0.41 0.41)"/><path class="cls-17" d="M1260.65,328.53a2.42,2.42,0,1,1-2.41-2.42A2.41,2.41,0,0,1,1260.65,328.53Z" transform="translate(0.41 0.41)"/><path class="cls-17" d="M1270.56,350a12.32,12.32,0,1,1-12.32-12.32A12.33,12.33,0,0,1,1270.56,350Z" transform="translate(0.41 0.41)"/><path class="cls-4" d="M1264.37,353.2a3.67,3.67,0,0,0-3.67-3.67h-1a4,4,0,1,0-2.92,0h-1a3.67,3.67,0,0,0-3.67,3.67l-.84,5h13.93Z" transform="translate(0.41 0.41)"/><path class="cls-4" d="M1287.25,376.37a6.52,6.52,0,0,1-6.51,6.52h-44.6a6.52,6.52,0,0,1-6.52-6.52h0a6.51,6.51,0,0,1,6.52-6.51h44.6a6.51,6.51,0,0,1,6.51,6.51Z" transform="translate(0.41 0.41)"/><polygon class="cls-17" points="1242.13 374.51 1241.28 373.31 1238.4 375.37 1238.4 371.82 1236.94 371.82 1236.94 375.37 1234.05 373.31 1233.2 374.51 1236.4 376.78 1233.2 379.06 1234.05 380.25 1236.94 378.2 1236.94 381.73 1238.4 381.73 1238.4 378.2 1241.28 380.25 1242.13 379.06 1238.93 376.78 1242.13 374.51"/><polygon class="cls-17" points="1252.66 374.51 1251.81 373.31 1248.93 375.37 1248.93 371.82 1247.47 371.82 1247.47 375.37 1244.58 373.31 1243.73 374.51 1246.93 376.78 1243.73 379.06 1244.58 380.25 1247.47 378.2 1247.47 381.73 1248.93 381.73 1248.93 378.2 1251.81 380.25 1252.66 379.06 1249.46 376.78 1252.66 374.51"/><polygon class="cls-17" points="1263.19 374.51 1262.34 373.31 1259.46 375.37 1259.46 371.82 1258 371.82 1258 375.37 1255.11 373.31 1254.26 374.51 1257.46 376.78 1254.26 379.06 1255.11 380.25 1258 378.2 1258 381.73 1259.46 381.73 1259.46 378.2 1262.34 380.25 1263.19 379.06 1259.99 376.78 1263.19 374.51"/><polygon class="cls-17" points="1273.72 374.51 1272.88 373.31 1269.99 375.37 1269.99 371.82 1268.53 371.82 1268.53 375.37 1265.64 373.31 1264.79 374.51 1267.99 376.78 1264.79 379.06 1265.64 380.25 1268.53 378.2 1268.53 381.73 1269.99 381.73 1269.99 378.2 1272.88 380.25 1273.72 379.06 1270.52 376.78 1273.72 374.51"/><polygon class="cls-17" points="1284.25 374.51 1283.41 373.31 1280.52 375.37 1280.52 371.82 1279.06 371.82 1279.06 375.37 1276.17 373.31 1275.33 374.51 1278.53 376.78 1275.33 379.06 1276.17 380.25 1279.06 378.2 1279.06 381.73 1280.52 381.73 1280.52 378.2 1283.41 380.25 1284.25 379.06 1281.05 376.78 1284.25 374.51"/><g class="cls-8"><rect x="1179.69" y="311.09" width="60.2" height="37.25" rx="3.72"/><rect x="1179.69" y="319.05" width="60.2" height="8.96"/><rect x="1187.29" y="332.53" width="23.53" height="2.75"/><rect x="1187.29" y="338.33" width="11.76" height="2.75"/></g><rect class="cls-4" x="1174.33" y="305.73" width="60.2" height="37.25" rx="3.72"/><rect class="cls-14" x="1174.33" y="313.69" width="60.2" height="8.96"/><rect class="cls-13" x="1181.93" y="327.17" width="23.53" height="2.75"/><rect class="cls-13" x="1181.93" y="332.97" width="11.76" height="2.75"/><g class="cls-8"><rect x="1242.08" y="197.02" width="19.2" height="31.89" rx="1.73"/><rect x="1244.39" y="204.38" width="3.81" height="4.04"/><rect x="1255.16" y="204.38" width="3.81" height="4.04"/><rect x="1235.05" y="212.97" width="33.26" height="55.24" rx="12.01"/><rect x="1238.05" y="215.97" width="27.26" height="49.23" rx="9.01"/><path d="M1259.45,244.45H1243.1a1.64,1.64,0,0,0-1.64,1.63v9.69a1.65,1.65,0,0,0,1.64,1.64h16.35a1.65,1.65,0,0,0,1.63-1.64v-9.69A1.64,1.64,0,0,0,1259.45,244.45Z" transform="translate(0.41 0.41)"/><path d="M1258.39,244.45H1257v-4.82a2.88,2.88,0,0,0-2.88-2.88h-5.59a2.88,2.88,0,0,0-2.88,2.88v4.82h-1.44v-4.82a4.32,4.32,0,0,1,4.32-4.32h5.59c2.38,0,4.32,1.94,4.32,4.82Z" transform="translate(0.41 0.41)"/><path d="M1254,254.12l-1.77-3.07a2.08,2.08,0,1,0-1.93,0l-1.77,3.07a.38.38,0,0,0,.35.62h4.76A.38.38,0,0,0,1254,254.12Z" transform="translate(0.41 0.41)"/></g><rect class="cls-17" x="1236.72" y="191.66" width="19.2" height="31.89" rx="1.73"/><rect class="cls-14" x="1239.03" y="199.02" width="3.81" height="4.04"/><rect class="cls-14" x="1249.8" y="199.02" width="3.81" height="4.04"/><rect class="cls-14" x="1229.69" y="207.61" width="33.26" height="55.24" rx="12.01"/><rect class="cls-13" x="1232.69" y="210.61" width="27.26" height="49.23" rx="9.01"/><path class="cls-15" d="M1254.09,239.09h-16.35a1.64,1.64,0,0,0-1.63,1.63v9.7a1.63,1.63,0,0,0,1.63,1.63h16.35a1.63,1.63,0,0,0,1.63-1.63v-9.7A1.64,1.64,0,0,0,1254.09,239.09Z" transform="translate(0.41 0.41)"/><path class="cls-15" d="M1253,239.09h-1.44v-4.82a2.89,2.89,0,0,0-2.88-2.88h-5.59a2.89,2.89,0,0,0-2.88,2.88v4.82h-1.44v-4.82a4.33,4.33,0,0,1,4.32-4.32h5.59c2.38,0,4.32,1.94,4.32,4.82Z" transform="translate(0.41 0.41)"/><path class="cls-14" d="M1248.65,248.76l-1.77-3.07a2.05,2.05,0,0,0,1.11-1.83,2.08,2.08,0,1,0-4.15,0,2.05,2.05,0,0,0,1.11,1.83l-1.77,3.07c-.2.34,0,.62.36.62h4.75C1248.69,249.38,1248.85,249.1,1248.65,248.76Z" transform="translate(0.41 0.41)"/><g class="cls-8"><path d="M1040.37,410.38l.11,10.35c0,3.63,9.58,6.49,21.32,6.37s21.23-3.17,21.19-6.81l-.1-10.34" transform="translate(0.41 0.41)"/><path d="M1041.89,407.93a3.26,3.26,0,0,0-1.52,2.45c0,3.64,9.59,6.49,21.33,6.37s21.22-3.17,21.19-6.8a3.14,3.14,0,0,0-1.4-2.3" transform="translate(0.41 0.41)"/><path d="M1040.21,394.81l.11,10.34c0,3.64,9.58,6.49,21.32,6.37s21.23-3.16,21.19-6.8l-.1-10.35" transform="translate(0.41 0.41)"/><path d="M1041.73,392.35a3.28,3.28,0,0,0-1.52,2.46c0,3.63,9.59,6.48,21.33,6.36s21.22-3.16,21.19-6.8a3.14,3.14,0,0,0-1.4-2.29" transform="translate(0.41 0.41)"/><path d="M1040.06,379.55l.1,10.34c0,3.64,9.59,6.49,21.32,6.37s21.23-3.17,21.2-6.8l-.11-10.35" transform="translate(0.41 0.41)"/><path d="M1082.57,379.11c0,3.63-9.45,6.68-21.19,6.8s-21.29-2.73-21.32-6.36,9.44-6.69,21.19-6.8S1082.53,375.48,1082.57,379.11Z" transform="translate(0.41 0.41)"/><path d="M1006.54,426.2l.13,12.81c0,4.5,11.86,8,26.4,7.88s26.28-3.92,26.23-8.42l-.13-12.81" transform="translate(0.41 0.41)"/><path d="M1008.41,423.16a4,4,0,0,0-1.87,3c0,4.5,11.86,8,26.4,7.88s26.27-3.91,26.23-8.42a3.87,3.87,0,0,0-1.73-2.84" transform="translate(0.41 0.41)"/><path d="M1006.34,406.92l.13,12.81c0,4.5,11.86,8,26.4,7.88s26.28-3.91,26.23-8.42l-.13-12.8" transform="translate(0.41 0.41)"/><path d="M1008.22,403.88a4.06,4.06,0,0,0-1.88,3c0,4.5,11.87,8,26.4,7.88s26.28-3.91,26.23-8.41a3.87,3.87,0,0,0-1.73-2.85" transform="translate(0.41 0.41)"/><path d="M1006.15,388l.13,12.81c0,4.5,11.86,8,26.4,7.88s26.28-3.92,26.23-8.42l-.13-12.81" transform="translate(0.41 0.41)"/><path d="M1058.78,387.49c0,4.5-11.7,8.27-26.23,8.42s-26.36-3.38-26.4-7.88,11.7-8.27,26.23-8.42S1058.73,383,1058.78,387.49Z" transform="translate(0.41 0.41)"/><path d="M1077.75,418.85A16.78,16.78,0,1,1,1061,402.08,16.77,16.77,0,0,1,1077.75,418.85Z" transform="translate(0.41 0.41)"/><path d="M1068.19,415.39h-13.71a2,2,0,0,0-2,1.94v11.51a2,2,0,0,0,2,1.94h13.71a1.94,1.94,0,0,0,1.94-1.94V417.33A1.94,1.94,0,0,0,1068.19,415.39Z" transform="translate(0.41 0.41)"/><path d="M1067.26,415.39h-1.71v-5.72a3.42,3.42,0,0,0-3.42-3.42h-1.65a3.42,3.42,0,0,0-3.42,3.42v5.72h-1.71v-5.72a5.13,5.13,0,0,1,5.13-5.13h1.65c2.83,0,5.13,2.3,5.13,5.71Z" transform="translate(0.41 0.41)"/><path d="M1064.58,426.16l-2.1-3.64a2.47,2.47,0,1,0-2.29,0l-2.11,3.64c-.23.4,0,.73.43.73h5.65C1064.62,426.89,1064.82,426.56,1064.58,426.16Z" transform="translate(0.41 0.41)"/></g><path class="cls-13" d="M1035,405l.11,10.35c0,3.64,9.59,6.49,21.33,6.37s21.22-3.17,21.19-6.8l-.11-10.35" transform="translate(0.41 0.41)"/><path class="cls-14" d="M1036.53,402.57A3.29,3.29,0,0,0,1035,405c0,3.64,9.59,6.49,21.33,6.37s21.23-3.16,21.19-6.8a3.16,3.16,0,0,0-1.4-2.3" transform="translate(0.41 0.41)"/><path class="cls-13" d="M1034.86,389.45l.1,10.35c0,3.63,9.58,6.49,21.33,6.37s21.23-3.17,21.19-6.81l-.11-10.34" transform="translate(0.41 0.41)"/><path class="cls-14" d="M1036.37,387a3.22,3.22,0,0,0-1.51,2.45c0,3.64,9.58,6.49,21.32,6.37s21.23-3.17,21.19-6.8a3.14,3.14,0,0,0-1.4-2.3" transform="translate(0.41 0.41)"/><path class="cls-13" d="M1034.7,374.19l.1,10.35c0,3.63,9.59,6.49,21.33,6.36s21.23-3.16,21.19-6.8l-.11-10.35" transform="translate(0.41 0.41)"/><path class="cls-14" d="M1077.21,373.75c0,3.64-9.44,6.69-21.19,6.81s-21.29-2.73-21.32-6.37,9.45-6.68,21.19-6.8S1077.18,370.12,1077.21,373.75Z" transform="translate(0.41 0.41)"/><path class="cls-17" d="M1001.18,420.84l.13,12.81c.05,4.5,11.87,8,26.4,7.89s26.28-3.93,26.24-8.42l-.14-12.81" transform="translate(0.41 0.41)"/><path class="cls-13" d="M1003.06,417.81a4,4,0,0,0-1.88,3c.05,4.51,11.87,8,26.4,7.89s26.28-3.92,26.23-8.42a3.87,3.87,0,0,0-1.73-2.84" transform="translate(0.41 0.41)"/><path class="cls-17" d="M1001,401.57l.13,12.81c0,4.49,11.87,8,26.4,7.88s26.28-3.92,26.24-8.43l-.13-12.8" transform="translate(0.41 0.41)"/><path class="cls-13" d="M1002.86,398.53a4,4,0,0,0-1.88,3c0,4.5,11.87,8,26.4,7.88s26.28-3.92,26.24-8.42a3.91,3.91,0,0,0-1.73-2.84" transform="translate(0.41 0.41)"/><path class="cls-17" d="M1000.79,382.67l.13,12.81c.05,4.5,11.87,8,26.4,7.88s26.28-3.92,26.23-8.42l-.13-12.81" transform="translate(0.41 0.41)"/><path class="cls-13" d="M1053.42,382.13c0,4.5-11.7,8.28-26.23,8.42s-26.35-3.38-26.4-7.88,11.7-8.27,26.23-8.42S1053.38,377.63,1053.42,382.13Z" transform="translate(0.41 0.41)"/><path class="cls-14" d="M1072.39,413.5a16.77,16.77,0,1,1-16.77-16.78A16.77,16.77,0,0,1,1072.39,413.5Z" transform="translate(0.41 0.41)"/><path class="cls-15" d="M1062.83,410h-13.71a2,2,0,0,0-1.94,1.94v11.52a1.94,1.94,0,0,0,1.94,1.93h13.71a1.94,1.94,0,0,0,1.94-1.93V412A2,2,0,0,0,1062.83,410Z" transform="translate(0.41 0.41)"/><path class="cls-15" d="M1061.9,410h-1.71V404.3a3.42,3.42,0,0,0-3.42-3.42h-1.65a3.42,3.42,0,0,0-3.41,3.42V410H1050V404.3a5.13,5.13,0,0,1,5.12-5.13h1.65c2.83,0,5.13,2.3,5.13,5.72Z" transform="translate(0.41 0.41)"/><path class="cls-14" d="M1059.22,420.8l-2.1-3.64a2.47,2.47,0,1,0-2.29,0l-2.1,3.64c-.24.41,0,.74.42.74h5.65C1059.27,421.54,1059.46,421.21,1059.22,420.8Z" transform="translate(0.41 0.41)"/><g class="cls-8"><path d="M1099.21,163a34,34,0,0,1,1.12-8.62c-20.72-3.54-48.33-6.63-63.55-6.63-14.75,0-41.12,2.9-61.6,6.3a33.59,33.59,0,0,1-30.72,42.52c2.19,29.69,9.85,70.06,18.86,91.85,14.94,36.11,66.61,67.85,73.46,73.46,6.84-5.61,58.51-37.35,73.45-73.46,9-21.83,16.7-62.31,18.87-92A33.62,33.62,0,0,1,1099.21,163Z" transform="translate(0.41 0.41)"/><path d="M1036.78,164.52c-9.92,0-26.89,1.52-43.86,3.82a50.39,50.39,0,0,1-30.33,41c1.57,13.38,4,27.43,6.79,40.13,2.88,13,6.18,24.53,9.47,32.48,9.95,24,42,47.91,57.93,59.21l0,0V164.52Z" transform="translate(0.41 0.41)"/><path d="M1082.72,168.63c-17.54-2.44-35.58-4.1-45.89-4.11V341.15c16-11.32,47.93-35.17,57.87-59.18,3.29-8,6.59-19.51,9.47-32.48a414,414,0,0,0,6.9-41A50.35,50.35,0,0,1,1082.72,168.63Z" transform="translate(0.41 0.41)"/></g><path class="cls-11" d="M1094.43,158.19a33.64,33.64,0,0,1,1.12-8.63c-20.72-3.53-48.33-6.63-63.55-6.63-14.75,0-41.12,2.91-61.6,6.3a33.62,33.62,0,0,1-30.72,42.52c2.19,29.7,9.85,70.07,18.86,91.86,14.94,36.11,66.61,67.85,73.46,73.46,6.84-5.61,58.51-37.35,73.44-73.46,9-21.83,16.7-62.32,18.88-92A33.62,33.62,0,0,1,1094.43,158.19Z" transform="translate(0.41 0.41)"/><path class="cls-9" d="M1032,159.74c-9.92,0-26.89,1.52-43.86,3.82a50.39,50.39,0,0,1-30.33,41c1.57,13.38,4,27.43,6.79,40.13,2.88,13,6.18,24.53,9.47,32.48,9.95,24,42,47.91,57.93,59.21l0,0V159.74Z" transform="translate(0.41 0.41)"/><path class="cls-10" d="M1077.94,163.85c-17.54-2.45-35.59-4.1-45.9-4.11V336.36c16-11.31,47.94-35.16,57.88-59.17,3.29-8,6.59-19.51,9.47-32.48a414.52,414.52,0,0,0,6.9-41A50.37,50.37,0,0,1,1077.94,163.85Z" transform="translate(0.41 0.41)"/><polyline class="cls-24" points="1012.98 236.6 1032.34 261.62 1066.27 217.77"/></g></g></svg>